# xmcd
#
# Track frame offsets:
#	150
#	16940
#	31322
#	54005
#	68445
#	83165
#	96945
#	110797
#	123902
#	141805
#	158120
#	177852
#	194162
#
# Disc length: 2709 seconds
#
# Revision: 1
# Processed by: cddbd v1.5.2PL0 Copyright (c) Steve Scherf et al.
# Submitted via: audiograbber 1.83.01
#
DISCID=a60a930d
DTITLE=Circuit Riders - Let The Ride Begin
DYEAR=2006
DGENRE=Bluegrass
TTITLE0=Lonesome Wind
TTITLE1=Powderfinger
TTITLE2=Mama What Does Heaven Look Like There
TTITLE3=Take Me Back To Old Kentucky
TTITLE4=Seeds Of Doubt
TTITLE5=Foggy Mountain Special
TTITLE6=Colder And Colder
TTITLE7=In The Master's Glory
TTITLE8=Katie And Burl
TTITLE9=Ten Years
TTITLE10=Pickett's Charge
TTITLE11=The Fall
TTITLE12=Cold Wind
EXTD=
EXTT0=
EXTT1=
EXTT2=
EXTT3=
EXTT4=
EXTT5=
EXTT6=
EXTT7=
EXTT8=
EXTT9=
EXTT10=
EXTT11=
EXTT12=
PLAYORDER=
